<svg width="626" height="155" xmlns="http://www.w3.org/2000/svg"><g fill="none" fill-rule="evenodd"><path d="M506.215 154.256h-31.99v-2.01l18.254-21.326c2.987-3.549 5.21-6.7 6.666-9.454 1.457-2.754 2.185-5.285 2.185-7.593 0-3.97-1.138-7.052-3.415-9.248-2.278-2.196-5.485-3.294-9.623-3.294-2.498 0-4.775.608-6.832 1.824-2.057 1.215-3.667 2.896-4.83 5.043-1.163 2.146-1.744 4.534-1.744 7.164h-1.984c0-2.903.661-5.595 1.984-8.076 1.322-2.481 3.158-4.43 5.509-5.844 2.35-1.414 4.983-2.121 7.897-2.121 4.75 0 8.447 1.278 11.092 3.834 2.644 2.555 3.966 6.128 3.966 10.718 0 4.219-2.338 9.268-7.015 15.148l-3.342 4.132-16.16 19.093h29.382v2.01zm17.704-21.773l-.074.074-5.766 5.025v16.674h-1.984V97.088h1.984v38.298l4.664-4.466 18.071-16.935h2.828l-18.254 17.158 19.393 23.113h-2.571l-18.291-21.773zm45.654 21.773h-1.984v-51.66l-15.352 5.844v-2.196l16.932-6.327h.404v54.339zm53.183-40.42c0 3.027-.924 5.676-2.773 7.946-1.848 2.27-4.242 3.853-7.18 4.746 3.501.943 6.293 2.655 8.374 5.136 2.081 2.481 3.122 5.31 3.122 8.486 0 4.59-1.549 8.213-4.646 10.868-3.098 2.655-7.218 3.982-12.36 3.982-5.24 0-9.396-1.327-12.47-3.982-3.072-2.655-4.609-6.278-4.609-10.868 0-3.201 1.01-6.036 3.03-8.505 2.02-2.468 4.781-4.174 8.283-5.117-2.938-.893-5.307-2.475-7.107-4.746-1.8-2.27-2.7-4.919-2.7-7.946 0-4.466 1.414-8.002 4.243-10.607 2.828-2.605 6.556-3.908 11.183-3.908 4.653 0 8.418 1.327 11.295 3.982 2.877 2.655 4.315 6.166 4.315 10.533zm-.477 26.5c0-3.722-1.408-6.786-4.224-9.193-2.816-2.407-6.428-3.61-10.835-3.61-4.432 0-8.044 1.197-10.835 3.591-2.792 2.395-4.187 5.465-4.187 9.212 0 3.821 1.365 6.885 4.095 9.193 2.73 2.307 6.397 3.461 11 3.461 4.506 0 8.13-1.16 10.872-3.48 2.743-2.32 4.114-5.378 4.114-9.174zm-1.506-26.686c0-3.523-1.31-6.457-3.93-8.802-2.62-2.345-5.852-3.517-9.697-3.517-3.942 0-7.168 1.129-9.678 3.387-2.51 2.258-3.764 5.235-3.764 8.932 0 3.524 1.248 6.383 3.746 8.58 2.498 2.195 5.754 3.293 9.77 3.293 3.967 0 7.217-1.11 9.751-3.331 2.535-2.22 3.802-5.068 3.802-8.542z" fill="#FFF"/><path d="M367.682 97.938l-27.088 26.623h27.08l29.284 27.886h22.928l23.883-26.196-27.232-.145-26.11-28.168h-22.745z" stroke="#FFF" stroke-width="1.7"/><path d="M19.372 149.164l2.462-9.018L34.67 97.84h2.24l12.76 42.307 2.425 9.018 2.537-9.018L65.825 97.84h2.201L53.4 152.545h-2.276l-13.47-45.613-1.903-5.786-1.828 5.786-13.581 45.613h-2.276L3.402 97.84h2.239l11.268 42.307 2.463 9.018zm87.682-23.746H79.817v25.098h31.043v2.03H77.802V97.838h33.058v2.03H79.817v23.52h27.237v2.029zm43.506 0h-27.238v25.098h31.044v2.03h-33.059V97.838h33.059v2.03h-31.044v23.52h27.238v2.029zm24.961-1.653l-8.693 8.078v20.702h-2.015V97.84h2.015v31.637l8.955-8.83 22.536-22.807h2.91l-24.215 24.535 26.08 30.171h-2.611l-24.962-28.78zm88.616 15.667c0-2.33-.541-4.302-1.623-5.917-1.082-1.616-2.786-3.044-5.112-4.284-2.326-1.24-5.84-2.51-10.54-3.813-4.702-1.303-8.228-2.618-10.578-3.945-2.351-1.328-4.074-2.868-5.168-4.622-1.095-1.753-1.642-3.882-1.642-6.387 0-3.983 1.667-7.208 5-9.675 3.333-2.467 7.674-3.701 13.022-3.701 3.482 0 6.61.682 9.384 2.048 2.773 1.365 4.919 3.281 6.436 5.748 1.517 2.468 2.276 5.254 2.276 8.36h-2.015c0-4.083-1.492-7.458-4.477-10.126-2.985-2.667-6.853-4.001-11.604-4.001-4.776 0-8.638 1.07-11.586 3.212-2.947 2.142-4.421 4.828-4.421 8.06 0 3.281 1.281 5.924 3.843 7.928 2.562 2.003 6.79 3.776 12.686 5.316 5.895 1.54 10.211 3.325 12.947 5.354 3.483 2.58 5.224 6.037 5.224 10.37 0 2.756-.771 5.192-2.313 7.308-1.543 2.117-3.732 3.751-6.567 4.903-2.836 1.153-6.02 1.729-9.552 1.729-3.93 0-7.462-.658-10.597-1.973-3.134-1.315-5.49-3.187-7.07-5.617s-2.37-5.298-2.37-8.604h2.015c0 4.484 1.667 7.965 5 10.445 3.333 2.48 7.674 3.72 13.022 3.72 4.751 0 8.669-1.096 11.753-3.288 3.085-2.192 4.627-5.04 4.627-8.548zm14.663-9.994v23.107h-2.014V97.84h16.976c5.547 0 9.857 1.41 12.929 4.227 3.072 2.818 4.608 6.732 4.608 11.742 0 4.96-1.499 8.792-4.496 11.497-2.998 2.705-7.257 4.083-12.78 4.133H278.8zm0-2.029h14.962c4.9 0 8.713-1.19 11.436-3.57 2.724-2.379 4.086-5.698 4.086-9.956 0-4.409-1.362-7.847-4.086-10.314-2.723-2.467-6.535-3.7-11.436-3.7H278.8v27.54zM48.747 47.692H18.659v30.873H0v-77.5h51.777v14.424H18.659v17.832h30.088v14.371zm44.994 3.513h-10.1v27.36H64.98v-77.5h30.46c9.18 0 16.356 2.04 21.53 6.12 5.174 4.082 7.761 9.848 7.761 17.3 0 5.394-1.09 9.865-3.27 13.413-2.179 3.549-5.59 6.423-10.232 8.623l16.16 31.245v.799h-19.988L93.74 51.205zm-10.1-14.424h11.8c3.545 0 6.211-.932 8.001-2.795 1.79-1.863 2.685-4.462 2.685-7.798 0-3.335-.904-5.952-2.712-7.85-1.807-1.9-4.465-2.849-7.973-2.849H83.64v21.292zm123.35 4.63c0 7.559-1.4 14.248-4.2 20.067-2.8 5.82-6.778 10.3-11.934 13.44-5.157 3.14-11.03 4.711-17.623 4.711-6.591 0-12.439-1.517-17.542-4.55-5.103-3.035-9.081-7.373-11.934-13.015-2.853-5.642-4.35-12.118-4.492-19.428V38.27c0-7.594 1.39-14.292 4.173-20.094 2.782-5.802 6.769-10.281 11.96-13.44C160.592 1.58 166.502 0 173.13 0c6.555 0 12.403 1.561 17.542 4.684 5.138 3.123 9.134 7.567 11.987 13.334 2.853 5.766 4.297 12.375 4.332 19.827v3.566zm-18.978-3.247c0-7.7-1.285-13.546-3.854-17.538-2.57-3.992-6.247-5.988-11.03-5.988-9.357 0-14.3 7.026-14.832 21.078l-.053 5.695c0 7.594 1.258 13.432 3.774 17.512 2.516 4.081 6.255 6.122 11.216 6.122 4.714 0 8.346-2.005 10.898-6.015 2.552-4.01 3.845-9.776 3.88-17.3v-3.566zm98.684 40.4h-18.553l-27.43-48.224v48.225h-18.658v-77.5h18.658l27.377 48.224V1.065h18.606v77.5zM363.16 15.49h-23.23v63.076h-18.66V15.489h-22.805V1.065h64.695v14.424zm33.033 36.621h-31.949V38.218h31.949V52.11zm68.224-6.387h-29.344v18.47h34.66v14.372h-53.319v-77.5h53.425V15.49h-34.766v16.34h29.344v13.893zm83.002 32.842h-18.552l-27.43-48.225v48.225h-18.659v-77.5h18.659l27.377 48.224V1.065h18.605v77.5zm17.245 0v-77.5h24.932c6.84 0 12.988 1.552 18.446 4.657 5.458 3.105 9.72 7.487 12.785 13.147 3.065 5.66 4.616 12.003 4.651 19.03v3.566c0 7.097-1.497 13.457-4.492 19.082-2.995 5.624-7.212 10.024-12.652 13.2-5.44 3.176-11.509 4.782-18.207 4.818h-25.463zm18.659-63.076v48.704h6.485c5.352 0 9.463-1.907 12.333-5.722 2.87-3.815 4.306-9.483 4.306-17.006V38.11c0-7.487-1.435-13.13-4.306-16.926-2.87-3.797-7.052-5.696-12.545-5.696h-6.273z" fill="#FFF"/></g></svg>